<mxfile host="app.diagrams.net" modified="2021-12-21T10:42:21.520Z" agent="5.0 (Windows NT 10.0; Win64; x64) AppleWebKit/537.36 (KHTML, like Gecko) Chrome/96.0.4664.110 Safari/537.36" etag="JfDLfm3gv9rB0KGtZ1Te" version="16.0.0" type="github">
  <diagram id="C5RBs43oDa-KdzZeNtuy" name="Page-1">
    <mxGraphModel dx="2010" dy="539" grid="1" gridSize="10" guides="1" tooltips="1" connect="1" arrows="1" fold="1" page="1" pageScale="1" pageWidth="827" pageHeight="1169" math="0" shadow="0">
      <root>
        <mxCell id="WIyWlLk6GJQsqaUBKTNV-0" />
        <mxCell id="WIyWlLk6GJQsqaUBKTNV-1" parent="WIyWlLk6GJQsqaUBKTNV-0" />
        <mxCell id="yIS8jTAky7NsFdHwrZqY-81" value="Game" style="swimlane;fontStyle=1;align=center;verticalAlign=middle;childLayout=stackLayout;horizontal=1;startSize=29;horizontalStack=0;resizeParent=1;resizeParentMax=0;resizeLast=0;collapsible=0;marginBottom=0;html=1;" vertex="1" parent="WIyWlLk6GJQsqaUBKTNV-1">
          <mxGeometry x="-65" y="70" width="200" height="210" as="geometry" />
        </mxCell>
        <mxCell id="yIS8jTAky7NsFdHwrZqY-82" value="- canvas: HTMLCanvasElement&lt;br&gt;- ctx: CanvasRedeneringContext2D&lt;br&gt;- player: Player&lt;br&gt;- gameItems: GameItem[]&lt;br&gt;- score: number" style="text;html=1;strokeColor=none;fillColor=none;align=left;verticalAlign=top;spacingLeft=4;spacingRight=4;overflow=hidden;rotatable=0;points=[[0,0.5],[1,0.5]];portConstraint=eastwest;" vertex="1" parent="yIS8jTAky7NsFdHwrZqY-81">
          <mxGeometry y="29" width="200" height="101" as="geometry" />
        </mxCell>
        <mxCell id="yIS8jTAky7NsFdHwrZqY-83" value="" style="line;strokeWidth=1;fillColor=none;align=left;verticalAlign=middle;spacingTop=-1;spacingLeft=3;spacingRight=3;rotatable=0;labelPosition=right;points=[];portConstraint=eastwest;" vertex="1" parent="yIS8jTAky7NsFdHwrZqY-81">
          <mxGeometry y="130" width="200" height="8" as="geometry" />
        </mxCell>
        <mxCell id="yIS8jTAky7NsFdHwrZqY-84" value="&lt;font face=&quot;helvetica&quot;&gt;+ constructor()&lt;br&gt;- loop():void&lt;br&gt;- draw(): void&lt;br&gt;....&lt;br&gt;&lt;/font&gt;" style="text;whiteSpace=wrap;html=1;" vertex="1" parent="yIS8jTAky7NsFdHwrZqY-81">
          <mxGeometry y="138" width="200" height="72" as="geometry" />
        </mxCell>
        <mxCell id="yIS8jTAky7NsFdHwrZqY-85" value="GameItem" style="swimlane;fontStyle=1;align=center;verticalAlign=middle;childLayout=stackLayout;horizontal=1;startSize=29;horizontalStack=0;resizeParent=1;resizeParentMax=0;resizeLast=0;collapsible=0;marginBottom=0;html=1;" vertex="1" parent="WIyWlLk6GJQsqaUBKTNV-1">
          <mxGeometry x="-80" y="310" width="230" height="230" as="geometry" />
        </mxCell>
        <mxCell id="yIS8jTAky7NsFdHwrZqY-86" value="# img: HTMLImageElement&lt;br&gt;# xPos: number&lt;br&gt;# yPos: number&lt;br&gt;" style="text;html=1;strokeColor=none;fillColor=none;align=left;verticalAlign=top;spacingLeft=4;spacingRight=4;overflow=hidden;rotatable=0;points=[[0,0.5],[1,0.5]];portConstraint=eastwest;" vertex="1" parent="yIS8jTAky7NsFdHwrZqY-85">
          <mxGeometry y="29" width="230" height="61" as="geometry" />
        </mxCell>
        <mxCell id="yIS8jTAky7NsFdHwrZqY-87" value="" style="line;strokeWidth=1;fillColor=none;align=left;verticalAlign=middle;spacingTop=-1;spacingLeft=3;spacingRight=3;rotatable=0;labelPosition=right;points=[];portConstraint=eastwest;" vertex="1" parent="yIS8jTAky7NsFdHwrZqY-85">
          <mxGeometry y="90" width="230" height="8" as="geometry" />
        </mxCell>
        <mxCell id="yIS8jTAky7NsFdHwrZqY-88" value="&lt;font face=&quot;helvetica&quot;&gt;+ constructor()&lt;br&gt;+ draw(ctx:CanvasRenderingContext 2D)&lt;br&gt;+ getImgHeight(): number&lt;br&gt;+ getImgWidth(): number&lt;br&gt;+ getXPos(): number&lt;br&gt;+ getYPos(): number&lt;br&gt;...&lt;br&gt;&lt;/font&gt;" style="text;whiteSpace=wrap;html=1;" vertex="1" parent="yIS8jTAky7NsFdHwrZqY-85">
          <mxGeometry y="98" width="230" height="132" as="geometry" />
        </mxCell>
        <mxCell id="yIS8jTAky7NsFdHwrZqY-89" style="edgeStyle=orthogonalEdgeStyle;rounded=0;orthogonalLoop=1;jettySize=auto;html=1;entryX=0.5;entryY=0;entryDx=0;entryDy=0;endArrow=none;endFill=0;" edge="1" parent="WIyWlLk6GJQsqaUBKTNV-1" source="yIS8jTAky7NsFdHwrZqY-84" target="yIS8jTAky7NsFdHwrZqY-85">
          <mxGeometry relative="1" as="geometry" />
        </mxCell>
        <mxCell id="yIS8jTAky7NsFdHwrZqY-90" style="edgeStyle=orthogonalEdgeStyle;rounded=0;orthogonalLoop=1;jettySize=auto;html=1;endArrow=block;endFill=0;" edge="1" parent="WIyWlLk6GJQsqaUBKTNV-1" source="yIS8jTAky7NsFdHwrZqY-91" target="yIS8jTAky7NsFdHwrZqY-88">
          <mxGeometry relative="1" as="geometry">
            <Array as="points">
              <mxPoint x="-155" y="585" />
              <mxPoint x="-40" y="585" />
            </Array>
          </mxGeometry>
        </mxCell>
        <mxCell id="yIS8jTAky7NsFdHwrZqY-91" value="Player" style="swimlane;fontStyle=1;align=center;verticalAlign=middle;childLayout=stackLayout;horizontal=1;startSize=29;horizontalStack=0;resizeParent=1;resizeParentMax=0;resizeLast=0;collapsible=0;marginBottom=0;html=1;" vertex="1" parent="WIyWlLk6GJQsqaUBKTNV-1">
          <mxGeometry x="-280" y="630" width="250" height="210" as="geometry" />
        </mxCell>
        <mxCell id="yIS8jTAky7NsFdHwrZqY-92" value="- xVel: number&lt;br&gt;- yVel: number&lt;br&gt;- keyBoardListener: KeyboardListener" style="text;html=1;strokeColor=none;fillColor=none;align=left;verticalAlign=top;spacingLeft=4;spacingRight=4;overflow=hidden;rotatable=0;points=[[0,0.5],[1,0.5]];portConstraint=eastwest;" vertex="1" parent="yIS8jTAky7NsFdHwrZqY-91">
          <mxGeometry y="29" width="250" height="61" as="geometry" />
        </mxCell>
        <mxCell id="yIS8jTAky7NsFdHwrZqY-93" value="" style="line;strokeWidth=1;fillColor=none;align=left;verticalAlign=middle;spacingTop=-1;spacingLeft=3;spacingRight=3;rotatable=0;labelPosition=right;points=[];portConstraint=eastwest;" vertex="1" parent="yIS8jTAky7NsFdHwrZqY-91">
          <mxGeometry y="90" width="250" height="8" as="geometry" />
        </mxCell>
        <mxCell id="yIS8jTAky7NsFdHwrZqY-94" value="&lt;font face=&quot;helvetica&quot;&gt;+ constructor()&lt;br&gt;+ move(canvas:HTMLCanvasLement): void&lt;br&gt;+ isCleaningUp(item: GameItem): boolean&lt;br&gt;...&lt;br&gt;&lt;/font&gt;" style="text;whiteSpace=wrap;html=1;" vertex="1" parent="yIS8jTAky7NsFdHwrZqY-91">
          <mxGeometry y="98" width="250" height="112" as="geometry" />
        </mxCell>
        <mxCell id="yIS8jTAky7NsFdHwrZqY-95" style="edgeStyle=orthogonalEdgeStyle;rounded=0;orthogonalLoop=1;jettySize=auto;html=1;endArrow=block;endFill=0;" edge="1" parent="WIyWlLk6GJQsqaUBKTNV-1" source="yIS8jTAky7NsFdHwrZqY-96" target="yIS8jTAky7NsFdHwrZqY-88">
          <mxGeometry relative="1" as="geometry">
            <Array as="points">
              <mxPoint x="100" y="585" />
              <mxPoint x="10" y="585" />
            </Array>
          </mxGeometry>
        </mxCell>
        <mxCell id="yIS8jTAky7NsFdHwrZqY-96" value="Garbage" style="swimlane;fontStyle=1;align=center;verticalAlign=middle;childLayout=stackLayout;horizontal=1;startSize=29;horizontalStack=0;resizeParent=1;resizeParentMax=0;resizeLast=0;collapsible=0;marginBottom=0;html=1;" vertex="1" parent="WIyWlLk6GJQsqaUBKTNV-1">
          <mxGeometry y="630" width="200" height="160" as="geometry" />
        </mxCell>
        <mxCell id="yIS8jTAky7NsFdHwrZqY-97" value="- score: number" style="text;html=1;strokeColor=none;fillColor=none;align=left;verticalAlign=top;spacingLeft=4;spacingRight=4;overflow=hidden;rotatable=0;points=[[0,0.5],[1,0.5]];portConstraint=eastwest;" vertex="1" parent="yIS8jTAky7NsFdHwrZqY-96">
          <mxGeometry y="29" width="200" height="61" as="geometry" />
        </mxCell>
        <mxCell id="yIS8jTAky7NsFdHwrZqY-98" value="" style="line;strokeWidth=1;fillColor=none;align=left;verticalAlign=middle;spacingTop=-1;spacingLeft=3;spacingRight=3;rotatable=0;labelPosition=right;points=[];portConstraint=eastwest;" vertex="1" parent="yIS8jTAky7NsFdHwrZqY-96">
          <mxGeometry y="90" width="200" height="8" as="geometry" />
        </mxCell>
        <mxCell id="yIS8jTAky7NsFdHwrZqY-99" value="&lt;font face=&quot;helvetica&quot;&gt;+ constructor()&lt;br&gt;+ getScore(): number&lt;br&gt;...&lt;br&gt;&lt;/font&gt;" style="text;whiteSpace=wrap;html=1;" vertex="1" parent="yIS8jTAky7NsFdHwrZqY-96">
          <mxGeometry y="98" width="200" height="62" as="geometry" />
        </mxCell>
        <mxCell id="yIS8jTAky7NsFdHwrZqY-100" style="edgeStyle=orthogonalEdgeStyle;rounded=0;orthogonalLoop=1;jettySize=auto;html=1;endArrow=none;endFill=0;" edge="1" parent="WIyWlLk6GJQsqaUBKTNV-1" source="yIS8jTAky7NsFdHwrZqY-101">
          <mxGeometry relative="1" as="geometry">
            <mxPoint x="-270" y="631" as="targetPoint" />
          </mxGeometry>
        </mxCell>
        <mxCell id="yIS8jTAky7NsFdHwrZqY-101" value="KeyBoardListener&lt;br&gt;(gegeven in startcode)" style="html=1;" vertex="1" parent="WIyWlLk6GJQsqaUBKTNV-1">
          <mxGeometry x="-280" y="480" width="130" height="50" as="geometry" />
        </mxCell>
        <mxCell id="yIS8jTAky7NsFdHwrZqY-102" style="edgeStyle=orthogonalEdgeStyle;rounded=0;orthogonalLoop=1;jettySize=auto;html=1;endArrow=block;endFill=0;entryX=0.855;entryY=1.007;entryDx=0;entryDy=0;entryPerimeter=0;" edge="1" parent="WIyWlLk6GJQsqaUBKTNV-1" source="yIS8jTAky7NsFdHwrZqY-103" target="yIS8jTAky7NsFdHwrZqY-88">
          <mxGeometry relative="1" as="geometry">
            <mxPoint x="120" y="550" as="targetPoint" />
            <Array as="points">
              <mxPoint x="330" y="580" />
              <mxPoint x="117" y="580" />
            </Array>
          </mxGeometry>
        </mxCell>
        <mxCell id="yIS8jTAky7NsFdHwrZqY-103" value="Egg" style="swimlane;fontStyle=1;align=center;verticalAlign=middle;childLayout=stackLayout;horizontal=1;startSize=29;horizontalStack=0;resizeParent=1;resizeParentMax=0;resizeLast=0;collapsible=0;marginBottom=0;html=1;" vertex="1" parent="WIyWlLk6GJQsqaUBKTNV-1">
          <mxGeometry x="230" y="630" width="200" height="160" as="geometry" />
        </mxCell>
        <mxCell id="yIS8jTAky7NsFdHwrZqY-104" value="- score: number" style="text;html=1;strokeColor=none;fillColor=none;align=left;verticalAlign=top;spacingLeft=4;spacingRight=4;overflow=hidden;rotatable=0;points=[[0,0.5],[1,0.5]];portConstraint=eastwest;" vertex="1" parent="yIS8jTAky7NsFdHwrZqY-103">
          <mxGeometry y="29" width="200" height="61" as="geometry" />
        </mxCell>
        <mxCell id="yIS8jTAky7NsFdHwrZqY-105" value="" style="line;strokeWidth=1;fillColor=none;align=left;verticalAlign=middle;spacingTop=-1;spacingLeft=3;spacingRight=3;rotatable=0;labelPosition=right;points=[];portConstraint=eastwest;" vertex="1" parent="yIS8jTAky7NsFdHwrZqY-103">
          <mxGeometry y="90" width="200" height="8" as="geometry" />
        </mxCell>
        <mxCell id="yIS8jTAky7NsFdHwrZqY-106" value="&lt;font face=&quot;helvetica&quot;&gt;+ constructor()&lt;br&gt;+ getScore(): number&lt;br&gt;...&lt;br&gt;&lt;/font&gt;" style="text;whiteSpace=wrap;html=1;" vertex="1" parent="yIS8jTAky7NsFdHwrZqY-103">
          <mxGeometry y="98" width="200" height="62" as="geometry" />
        </mxCell>
      </root>
    </mxGraphModel>
  </diagram>
</mxfile>
